<?xml version="1.0" encoding="UTF-8" standalone="no"?>
<svg
   xmlns:dc="http://purl.org/dc/elements/1.1/"
   xmlns:cc="http://creativecommons.org/ns#"
   xmlns:rdf="http://www.w3.org/1999/02/22-rdf-syntax-ns#"
   xmlns:svg="http://www.w3.org/2000/svg"
   xmlns="http://www.w3.org/2000/svg"
   xmlns:xlink="http://www.w3.org/1999/xlink"
   xmlns:sodipodi="http://sodipodi.sourceforge.net/DTD/sodipodi-0.dtd"
   xmlns:inkscape="http://www.inkscape.org/namespaces/inkscape"
   inkscape:version="1.0 (4035a4fb49, 2020-05-01)"
   sodipodi:docname="qca_cells.svg"
   id="svg154"
   height="273.54001"
   width="580.58002"
   viewBox="0 0 580.58002 273.54001"
   preserveAspectRatio="xMidYMid meet"
   version="1.1">
  <metadata
     id="metadata158">
    <rdf:RDF>
      <cc:Work
         rdf:about="">
        <dc:format>image/svg+xml</dc:format>
        <dc:type
           rdf:resource="http://purl.org/dc/dcmitype/StillImage" />
      </cc:Work>
    </rdf:RDF>
  </metadata>
  <sodipodi:namedview
     inkscape:current-layer="svg154"
     inkscape:window-maximized="1"
     inkscape:window-y="-8"
     inkscape:window-x="1272"
     inkscape:cy="180.02941"
     inkscape:cx="304.73"
     inkscape:zoom="1.328125"
     showgrid="false"
     id="namedview156"
     inkscape:window-height="1017"
     inkscape:window-width="1920"
     inkscape:pageshadow="2"
     inkscape:pageopacity="0"
     guidetolerance="10"
     gridtolerance="10"
     objecttolerance="10"
     borderopacity="1"
     bordercolor="#666666"
     pagecolor="#ffffff" />
  <defs
     id="defs16">
    <path
       id="cHz4wuEJD"
       d="M 15.77,20 H 288.31 V 292.54 H 15.77 Z" />
    <path
       id="b6OmDk6OeR"
       d="m 45.7,227.42 c 0,-18.66 15.15,-33.8 33.81,-33.8 18.65,0 33.8,15.14 33.8,33.8 0,18.65 -15.15,33.8 -33.8,33.8 -18.66,0 -33.81,-15.15 -33.81,-33.8 z" />
    <path
       id="a4hgNrbBB1"
       d="m 45.7,84.08 c 0,-18.65 15.15,-33.8 33.81,-33.8 18.65,0 33.8,15.15 33.8,33.8 0,18.66 -15.15,33.81 -33.8,33.81 -18.66,0 -33.81,-15.15 -33.81,-33.81 z" />
    <path
       id="c3PNQ44Rfl"
       d="m 54.22,84.08 c 0,-13.95 11.33,-25.28 25.29,-25.28 13.95,0 25.28,11.33 25.28,25.28 0,13.96 -11.33,25.29 -25.28,25.29 -13.96,0 -25.29,-11.33 -25.29,-25.29 z" />
    <path
       id="a1JKD2R3qT"
       d="m 261.82,84.26 c -0.09,18.65 -15.32,33.72 -33.97,33.63 -18.66,-0.1 -33.73,-15.32 -33.63,-33.98 0.09,-18.65 15.32,-33.72 33.97,-33.63 18.66,0.1 33.73,15.32 33.63,33.98 z" />
    <path
       id="bfjU6XaQL"
       d="m 261.09,227.59 c -0.09,18.65 -15.32,33.72 -33.97,33.63 -18.66,-0.1 -33.73,-15.32 -33.63,-33.98 0.09,-18.65 15.32,-33.72 33.97,-33.63 18.66,0.1 33.73,15.32 33.63,33.98 z" />
    <path
       id="a1uqlo399j"
       d="m 252.57,227.55 c -0.07,13.95 -11.46,25.22 -25.41,25.15 -13.95,-0.07 -25.23,-11.46 -25.15,-25.41 0.07,-13.96 11.45,-25.23 25.41,-25.16 13.95,0.07 25.22,11.46 25.15,25.42 z" />
    <path
       id="f5Z6ckbyk"
       d="M 322.81,292.54 H 595.35 V 20 H 322.81 Z" />
    <path
       id="c2gEPOJvw6"
       d="m 352.74,85.12 c 0,18.65 15.15,33.8 33.8,33.8 18.66,0 33.81,-15.15 33.81,-33.8 0,-18.66 -15.15,-33.81 -33.81,-33.81 -18.65,0 -33.8,15.15 -33.8,33.81 z" />
    <path
       id="eJJuUsjpc"
       d="m 352.74,228.45 c 0,18.66 15.15,33.8 33.8,33.8 18.66,0 33.81,-15.14 33.81,-33.8 0,-18.66 -15.15,-33.8 -33.81,-33.8 -18.65,0 -33.8,15.14 -33.8,33.8 z" />
    <path
       id="a2a3m4Utwv"
       d="m 361.26,228.45 c 0,13.96 11.33,25.29 25.28,25.29 13.96,0 25.29,-11.33 25.29,-25.29 0,-13.95 -11.33,-25.28 -25.29,-25.28 -13.95,0 -25.28,11.33 -25.28,25.28 z" />
    <path
       id="crDDTy1jm"
       d="m 568.86,228.28 c -0.09,-18.66 -15.32,-33.73 -33.97,-33.63 -18.66,0.09 -33.73,15.32 -33.63,33.97 0.09,18.66 15.31,33.73 33.97,33.63 18.66,-0.09 33.73,-15.32 33.63,-33.97 z" />
    <path
       id="eINapdqgv"
       d="m 568.13,84.95 c -0.1,-18.66 -15.32,-33.73 -33.98,-33.63 -18.65,0.09 -33.72,15.32 -33.63,33.97 0.1,18.66 15.32,33.73 33.98,33.63 18.65,-0.09 33.72,-15.32 33.63,-33.97 z" />
    <path
       id="d1Fa7QrQMo"
       d="M 559.61,84.99 C 559.54,71.04 548.15,59.76 534.2,59.84 c -13.96,0.07 -25.23,11.45 -25.16,25.41 0.07,13.95 11.46,25.22 25.42,25.15 13.95,-0.07 25.22,-11.46 25.15,-25.41 z" />
  </defs>
  <g
     transform="translate(-15.27,-19.5)"
     id="g152">
    <g
       id="g150">
      <g
         id="g82">
        <g
           id="g24">
          <use
             height="100%"
             width="100%"
             y="0"
             x="0"
             id="use18"
             fill-opacity="1"
             fill="#ffffff"
             opacity="1"
             xlink:href="#cHz4wuEJD" />
          <g
             id="g22">
            <use
               height="100%"
               width="100%"
               y="0"
               x="0"
               id="use20"
               stroke-opacity="1"
               stroke-width="1"
               stroke="#000000"
               fill-opacity="0"
               opacity="1"
               xlink:href="#cHz4wuEJD" />
          </g>
        </g>
        <g
           id="g52">
          <g
             id="g32">
            <use
               height="100%"
               width="100%"
               y="0"
               x="0"
               id="use26"
               fill-opacity="1"
               fill="#ffffff"
               opacity="1"
               xlink:href="#b6OmDk6OeR" />
            <g
               id="g30">
              <use
                 height="100%"
                 width="100%"
                 y="0"
                 x="0"
                 id="use28"
                 stroke-opacity="1"
                 stroke-width="1"
                 stroke="#000000"
                 fill-opacity="0"
                 opacity="1"
                 xlink:href="#b6OmDk6OeR" />
            </g>
          </g>
          <g
             id="g50">
            <g
               id="g40">
              <use
                 height="100%"
                 width="100%"
                 y="0"
                 x="0"
                 id="use34"
                 fill-opacity="1"
                 fill="#ffffff"
                 opacity="1"
                 xlink:href="#a4hgNrbBB1" />
              <g
                 id="g38">
                <use
                   height="100%"
                   width="100%"
                   y="0"
                   x="0"
                   id="use36"
                   stroke-opacity="1"
                   stroke-width="1"
                   stroke="#000000"
                   fill-opacity="0"
                   opacity="1"
                   xlink:href="#a4hgNrbBB1" />
              </g>
            </g>
            <g
               id="g48">
              <use
                 height="100%"
                 width="100%"
                 y="0"
                 x="0"
                 id="use42"
                 fill-opacity="1"
                 fill="#000000"
                 opacity="1"
                 xlink:href="#c3PNQ44Rfl" />
              <g
                 id="g46">
                <use
                   height="100%"
                   width="100%"
                   y="0"
                   x="0"
                   id="use44"
                   stroke-opacity="1"
                   stroke-width="1"
                   stroke="#000000"
                   fill-opacity="0"
                   opacity="1"
                   xlink:href="#c3PNQ44Rfl" />
              </g>
            </g>
          </g>
        </g>
        <g
           id="g80">
          <g
             id="g60">
            <use
               height="100%"
               width="100%"
               y="0"
               x="0"
               id="use54"
               fill-opacity="1"
               fill="#ffffff"
               opacity="1"
               xlink:href="#a1JKD2R3qT" />
            <g
               id="g58">
              <use
                 height="100%"
                 width="100%"
                 y="0"
                 x="0"
                 id="use56"
                 stroke-opacity="1"
                 stroke-width="1"
                 stroke="#000000"
                 fill-opacity="0"
                 opacity="1"
                 xlink:href="#a1JKD2R3qT" />
            </g>
          </g>
          <g
             id="g78">
            <g
               id="g68">
              <use
                 height="100%"
                 width="100%"
                 y="0"
                 x="0"
                 id="use62"
                 fill-opacity="1"
                 fill="#ffffff"
                 opacity="1"
                 xlink:href="#bfjU6XaQL" />
              <g
                 id="g66">
                <use
                   height="100%"
                   width="100%"
                   y="0"
                   x="0"
                   id="use64"
                   stroke-opacity="1"
                   stroke-width="1"
                   stroke="#000000"
                   fill-opacity="0"
                   opacity="1"
                   xlink:href="#bfjU6XaQL" />
              </g>
            </g>
            <g
               id="g76">
              <use
                 height="100%"
                 width="100%"
                 y="0"
                 x="0"
                 id="use70"
                 fill-opacity="1"
                 fill="#000000"
                 opacity="1"
                 xlink:href="#a1uqlo399j" />
              <g
                 id="g74">
                <use
                   height="100%"
                   width="100%"
                   y="0"
                   x="0"
                   id="use72"
                   stroke-opacity="1"
                   stroke-width="1"
                   stroke="#000000"
                   fill-opacity="0"
                   opacity="1"
                   xlink:href="#a1uqlo399j" />
              </g>
            </g>
          </g>
        </g>
      </g>
      <g
         id="g148">
        <g
           id="g90">
          <use
             height="100%"
             width="100%"
             y="0"
             x="0"
             id="use84"
             fill-opacity="1"
             fill="#ffffff"
             opacity="1"
             xlink:href="#f5Z6ckbyk" />
          <g
             id="g88">
            <use
               height="100%"
               width="100%"
               y="0"
               x="0"
               id="use86"
               stroke-opacity="1"
               stroke-width="1"
               stroke="#000000"
               fill-opacity="0"
               opacity="1"
               xlink:href="#f5Z6ckbyk" />
          </g>
        </g>
        <g
           id="g118">
          <g
             id="g98">
            <use
               height="100%"
               width="100%"
               y="0"
               x="0"
               id="use92"
               fill-opacity="1"
               fill="#ffffff"
               opacity="1"
               xlink:href="#c2gEPOJvw6" />
            <g
               id="g96">
              <use
                 height="100%"
                 width="100%"
                 y="0"
                 x="0"
                 id="use94"
                 stroke-opacity="1"
                 stroke-width="1"
                 stroke="#000000"
                 fill-opacity="0"
                 opacity="1"
                 xlink:href="#c2gEPOJvw6" />
            </g>
          </g>
          <g
             id="g116">
            <g
               id="g106">
              <use
                 height="100%"
                 width="100%"
                 y="0"
                 x="0"
                 id="use100"
                 fill-opacity="1"
                 fill="#ffffff"
                 opacity="1"
                 xlink:href="#eJJuUsjpc" />
              <g
                 id="g104">
                <use
                   height="100%"
                   width="100%"
                   y="0"
                   x="0"
                   id="use102"
                   stroke-opacity="1"
                   stroke-width="1"
                   stroke="#000000"
                   fill-opacity="0"
                   opacity="1"
                   xlink:href="#eJJuUsjpc" />
              </g>
            </g>
            <g
               id="g114">
              <use
                 height="100%"
                 width="100%"
                 y="0"
                 x="0"
                 id="use108"
                 fill-opacity="1"
                 fill="#000000"
                 opacity="1"
                 xlink:href="#a2a3m4Utwv" />
              <g
                 id="g112">
                <use
                   height="100%"
                   width="100%"
                   y="0"
                   x="0"
                   id="use110"
                   stroke-opacity="1"
                   stroke-width="1"
                   stroke="#000000"
                   fill-opacity="0"
                   opacity="1"
                   xlink:href="#a2a3m4Utwv" />
              </g>
            </g>
          </g>
        </g>
        <g
           id="g146">
          <g
             id="g126">
            <use
               height="100%"
               width="100%"
               y="0"
               x="0"
               id="use120"
               fill-opacity="1"
               fill="#ffffff"
               opacity="1"
               xlink:href="#crDDTy1jm" />
            <g
               id="g124">
              <use
                 height="100%"
                 width="100%"
                 y="0"
                 x="0"
                 id="use122"
                 stroke-opacity="1"
                 stroke-width="1"
                 stroke="#000000"
                 fill-opacity="0"
                 opacity="1"
                 xlink:href="#crDDTy1jm" />
            </g>
          </g>
          <g
             id="g144">
            <g
               id="g134">
              <use
                 height="100%"
                 width="100%"
                 y="0"
                 x="0"
                 id="use128"
                 fill-opacity="1"
                 fill="#ffffff"
                 opacity="1"
                 xlink:href="#eINapdqgv" />
              <g
                 id="g132">
                <use
                   height="100%"
                   width="100%"
                   y="0"
                   x="0"
                   id="use130"
                   stroke-opacity="1"
                   stroke-width="1"
                   stroke="#000000"
                   fill-opacity="0"
                   opacity="1"
                   xlink:href="#eINapdqgv" />
              </g>
            </g>
            <g
               id="g142">
              <use
                 height="100%"
                 width="100%"
                 y="0"
                 x="0"
                 id="use136"
                 fill-opacity="1"
                 fill="#000000"
                 opacity="1"
                 xlink:href="#d1Fa7QrQMo" />
              <g
                 id="g140">
                <use
                   height="100%"
                   width="100%"
                   y="0"
                   x="0"
                   id="use138"
                   stroke-opacity="1"
                   stroke-width="1"
                   stroke="#000000"
                   fill-opacity="0"
                   opacity="1"
                   xlink:href="#d1Fa7QrQMo" />
              </g>
            </g>
          </g>
        </g>
      </g>
    </g>
  </g>
</svg>
